<?xml version="1.0" encoding="UTF-8" standalone="no"?>
<!-- Generator: Adobe Illustrator 9.0, SVG Export Plug-In  -->
<svg
   xmlns:dc="http://purl.org/dc/elements/1.1/"
   xmlns:cc="http://creativecommons.org/ns#"
   xmlns:rdf="http://www.w3.org/1999/02/22-rdf-syntax-ns#"
   xmlns:svg="http://www.w3.org/2000/svg"
   xmlns="http://www.w3.org/2000/svg"
   xmlns:xlink="http://www.w3.org/1999/xlink"
   xmlns:sodipodi="http://sodipodi.sourceforge.net/DTD/sodipodi-0.dtd"
   xmlns:inkscape="http://www.inkscape.org/namespaces/inkscape"
   width="144pt"
   height="144pt"
   viewBox="0 0 144 144"
   xml:space="preserve"
   id="svg2"
   sodipodi:version="0.32"
   inkscape:version="0.46"
   sodipodi:docname="dvd.svg"
   inkscape:output_extension="org.inkscape.output.svg.inkscape"><metadata
   id="metadata148"><rdf:RDF><cc:Work
       rdf:about=""><dc:format>image/svg+xml</dc:format><dc:type
         rdf:resource="http://purl.org/dc/dcmitype/StillImage" /></cc:Work></rdf:RDF></metadata><defs
   id="defs146"><inkscape:perspective
   sodipodi:type="inkscape:persp3d"
   inkscape:vp_x="0 : 90 : 1"
   inkscape:vp_y="0 : 1000 : 0"
   inkscape:vp_z="180 : 90 : 1"
   inkscape:persp3d-origin="90 : 60 : 1"
   id="perspective150" />
		
		
		<linearGradient
   y2="77.1772"
   x2="122.3228"
   y1="77.1772"
   x1="15.1196"
   gradientUnits="userSpaceOnUse"
   id="aigrd1">
			<stop
   id="stop10"
   style="stop-color:#FFFFFF"
   offset="0" />
			<stop
   id="stop12"
   style="stop-color:#000000"
   offset="1" />
		</linearGradient>
		
		<linearGradient
   y2="34.4339"
   x2="108.7384"
   y1="116.7192"
   x1="26.4531"
   gradientUnits="userSpaceOnUse"
   id="aigrd2">
			<stop
   id="stop17"
   style="stop-color:#FFD900"
   offset="0.0112" />
			<stop
   id="stop19"
   style="stop-color:#FFDA05"
   offset="0.061" />
			<stop
   id="stop21"
   style="stop-color:#FFDC14"
   offset="0.1215" />
			<stop
   id="stop23"
   style="stop-color:#FFE02D"
   offset="0.1875" />
			<stop
   id="stop25"
   style="stop-color:#FFE54F"
   offset="0.2574" />
			<stop
   id="stop27"
   style="stop-color:#FFEB7B"
   offset="0.3305" />
			<stop
   id="stop29"
   style="stop-color:#FFF3B1"
   offset="0.4062" />
			<stop
   id="stop31"
   style="stop-color:#FFFDF0"
   offset="0.4827" />
			<stop
   id="stop33"
   style="stop-color:#FFFFFF"
   offset="0.5" />
			<stop
   id="stop35"
   style="stop-color:#FFFEF5"
   offset="0.5094" />
			<stop
   id="stop37"
   style="stop-color:#FFF5BC"
   offset="0.5671" />
			<stop
   id="stop39"
   style="stop-color:#FFEE8A"
   offset="0.6265" />
			<stop
   id="stop41"
   style="stop-color:#FFE760"
   offset="0.6864" />
			<stop
   id="stop43"
   style="stop-color:#FFE23D"
   offset="0.7467" />
			<stop
   id="stop45"
   style="stop-color:#FFDE22"
   offset="0.8077" />
			<stop
   id="stop47"
   style="stop-color:#FFDB0F"
   offset="0.8695" />
			<stop
   id="stop49"
   style="stop-color:#FFDA04"
   offset="0.9329" />
			<stop
   id="stop51"
   style="stop-color:#FFD900"
   offset="1" />
		</linearGradient>
		
		
		
		
		
		<linearGradient
   y2="270.6002"
   x2="208.4609"
   y1="91.5527"
   x1="77.2173"
   gradientUnits="userSpaceOnUse"
   id="aigrd3">
			<stop
   id="stop72"
   style="stop-color:#FFFFE1"
   offset="0" />
			<stop
   id="stop74"
   style="stop-color:#FFB800"
   offset="1" />
		</linearGradient>
		
		<linearGradient
   y2="131.5478"
   x2="144.0819"
   y1="45.436"
   x1="21.9233"
   gradientUnits="userSpaceOnUse"
   id="aigrd4">
			<stop
   id="stop79"
   style="stop-color:#FFAE00"
   offset="0" />
			<stop
   id="stop81"
   style="stop-color:#4C1C00"
   offset="1" />
		</linearGradient>
		
		<linearGradient
   y2="85.2771"
   x2="78.4434"
   y1="71.916"
   x1="59.4893"
   gradientUnits="userSpaceOnUse"
   id="aigrd5">
			<stop
   id="stop86"
   style="stop-color:#FFAE00"
   offset="0" />
			<stop
   id="stop88"
   style="stop-color:#4C1C00"
   offset="1" />
		</linearGradient>
		
		<linearGradient
   y2="93.5932"
   x2="90.2377"
   y1="67.1602"
   x1="52.7397"
   gradientUnits="userSpaceOnUse"
   id="aigrd6">
			<stop
   id="stop93"
   style="stop-color:#FFAE00"
   offset="0" />
			<stop
   id="stop95"
   style="stop-color:#BB4400"
   offset="1" />
		</linearGradient>
		
		
		
		<radialGradient
   gradientUnits="userSpaceOnUse"
   fy="40.0874"
   fx="42.6211"
   r="34.8267"
   cy="40.0874"
   cx="42.6211"
   id="aigrd7">
			<stop
   id="stop104"
   style="stop-color:#FFFF00"
   offset="0" />
			<stop
   id="stop106"
   style="stop-color:#FFF300"
   offset="0.0333" />
			<stop
   id="stop108"
   style="stop-color:#FFAA00"
   offset="0.2447" />
			<stop
   id="stop110"
   style="stop-color:#FF6E00"
   offset="0.4437" />
			<stop
   id="stop112"
   style="stop-color:#FF3E00"
   offset="0.6242" />
			<stop
   id="stop114"
   style="stop-color:#FF1C00"
   offset="0.7828" />
			<stop
   id="stop116"
   style="stop-color:#FF0800"
   offset="0.9135" />
			<stop
   id="stop118"
   style="stop-color:#FF0000"
   offset="1" />
			<stop
   id="stop120"
   style="stop-color:#4A1486"
   offset="1" />
		</radialGradient>
		
		
	<radialGradient
   inkscape:collect="always"
   xlink:href="#aigrd7"
   id="radialGradient2579"
   gradientUnits="userSpaceOnUse"
   cx="42.6211"
   cy="40.0874"
   fx="42.6211"
   fy="40.0874"
   r="34.8267"
   gradientTransform="translate(61.590361,-29.493976)" /><linearGradient
   inkscape:collect="always"
   xlink:href="#aigrd6"
   id="linearGradient2584"
   gradientUnits="userSpaceOnUse"
   x1="52.7397"
   y1="67.1602"
   x2="90.2377"
   y2="93.5932" /><linearGradient
   inkscape:collect="always"
   xlink:href="#aigrd5"
   id="linearGradient2587"
   gradientUnits="userSpaceOnUse"
   x1="59.4893"
   y1="71.916"
   x2="78.4434"
   y2="85.2771" /><linearGradient
   inkscape:collect="always"
   xlink:href="#aigrd4"
   id="linearGradient2590"
   gradientUnits="userSpaceOnUse"
   x1="21.9233"
   y1="45.436"
   x2="144.0819"
   y2="131.5478" /><linearGradient
   inkscape:collect="always"
   xlink:href="#aigrd3"
   id="linearGradient2593"
   gradientUnits="userSpaceOnUse"
   x1="77.2173"
   y1="91.5527"
   x2="208.4609"
   y2="270.6002" /><linearGradient
   inkscape:collect="always"
   xlink:href="#aigrd2"
   id="linearGradient2604"
   gradientUnits="userSpaceOnUse"
   x1="26.4531"
   y1="116.7192"
   x2="108.7384"
   y2="34.4339" /><linearGradient
   inkscape:collect="always"
   xlink:href="#aigrd1"
   id="linearGradient2607"
   gradientUnits="userSpaceOnUse"
   x1="15.1196"
   y1="77.1772"
   x2="122.3228"
   y2="77.1772" /></defs><sodipodi:namedview
   inkscape:window-height="704"
   inkscape:window-width="640"
   inkscape:pageshadow="2"
   inkscape:pageopacity="0.0"
   guidetolerance="10.0"
   gridtolerance="10.0"
   objecttolerance="10.0"
   borderopacity="1.0"
   bordercolor="#666666"
   pagecolor="#ffffff"
   id="base"
   showgrid="false"
   inkscape:zoom="2.7666667"
   inkscape:cx="90"
   inkscape:cy="90"
   inkscape:window-x="0"
   inkscape:window-y="0"
   inkscape:current-layer="svg2" />
	<path
   id="path5"
   d="M 144,144 L 0,144 L 0,0 L 144,0 L 144,144 z"
   style="fill:none;fill-rule:nonzero;stroke:none;stroke-width:0;stroke-miterlimit:4" /><path
   id="path7"
   d="M 105.397,121.878 C 105.397,131.669 82.222,139.603 53.633,139.603 C 25.045,139.603 1.87,131.669 1.87,121.878 C 1.87,112.089 25.045,104.153 53.633,104.153 C 82.222,104.153 105.397,112.089 105.397,121.878 L 105.397,121.878 z"
   style="opacity:0.2;fill:#000000;fill-rule:nonzero;stroke:none;stroke-width:0;stroke-miterlimit:4" /><path
   id="path14"
   d="M 32.992,28.006 C 10.86,44.086 8.913,79.137 28.647,106.295 C 48.378,133.454 82.315,142.431 104.449,126.35 C 126.584,110.267 128.529,75.219 108.796,48.061 C 89.063,20.902 55.127,11.922 32.992,28.006 z M 73.465,83.707 C 70.527,85.841 66.02,84.647 63.401,81.044 C 60.783,77.439 61.043,72.788 63.979,70.653 C 66.917,68.517 71.42,69.709 74.04,73.314 C 76.659,76.918 76.403,81.572 73.466,83.707 L 73.465,83.707 z"
   style="opacity:0.2;fill:url(#linearGradient2607);fill-rule:nonzero;stroke:none;stroke-width:0;stroke-miterlimit:4" /><path
   id="path53"
   d="M 30.662,27.608 C 8.528,43.691 6.581,78.742 26.313,105.9 C 46.045,133.055 79.983,142.036 102.118,125.955 C 124.251,109.874 126.197,74.819 106.467,47.664 C 86.733,20.505 52.794,11.527 30.662,27.608 z M 71.13,83.306 C 68.193,85.442 63.687,84.25 61.068,80.647 C 58.448,77.043 58.708,72.388 61.645,70.253 C 64.583,68.118 69.087,69.311 71.708,72.917 C 74.325,76.52 74.067,81.171 71.129,83.306 L 71.13,83.306 z"
   style="fill:url(#linearGradient2604);fill-rule:nonzero;stroke:none;stroke-width:0;stroke-miterlimit:4" /><path
   id="path55"
   d="M 61.069,80.647 C 60.825,80.311 60.619,79.967 60.421,79.619 L 32.382,113.223 C 43.564,125.093 57.708,132.196 71.503,133.646 L 66.429,84.229 C 64.455,83.834 62.487,82.6 61.07,80.648 L 61.069,80.647 z"
   style="fill:#ffd400;fill-rule:nonzero;stroke:none;stroke-width:0;stroke-miterlimit:4" /><path
   id="path57"
   d="M 68.4,70.06 L 96.44,36.452 C 85.559,26.538 72.49,20.758 59.813,19.785 L 64.887,69.2 C 66.05,69.179 67.256,69.478 68.4,70.059 L 68.4,70.06 z"
   style="fill:#ffd400;fill-rule:nonzero;stroke:none;stroke-width:0;stroke-miterlimit:4" /><g
   id="g59"
   style="opacity:0.4;fill:#ffffff;fill-rule:nonzero;stroke:none;stroke-width:0;stroke-miterlimit:4">
			<path
   id="path61"
   d="M 62.384,81.967 C 62.082,81.689 61.805,81.397 61.544,81.095 L 43.681,122.8 C 56.787,131.883 71.487,135.312 84.528,133.095 L 68.165,84.172 C 66.255,84.3 64.147,83.572 62.385,81.967 L 62.384,81.967 z"
   style="opacity:0.9" />
			<path
   id="path63"
   d="M 66.627,69.23 L 84.488,27.519 C 72.124,20.347 58.725,17.97 46.826,20.381 L 63.188,69.295 C 64.254,68.964 65.44,68.945 66.626,69.23 L 66.627,69.23 z"
   style="opacity:0.9" />
		</g><g
   id="g65"
   style="opacity:0.6800001;fill:#ffffff;fill-rule:nonzero;stroke:none;stroke-width:0;stroke-miterlimit:4">
			<path
   id="path67"
   d="M 68.924,83.4 C 68.595,83.497 68.258,83.55 67.919,83.585 L 95.932,128.684 C 107.932,122.712 115.854,111.393 118.564,97.749 L 72.747,79.535 C 72.186,81.4 70.854,82.857 68.925,83.4 L 68.924,83.4 z"
   style="opacity:0.9" />
			<path
   id="path69"
   d="M 59.949,70.758 L 31.933,25.653 C 21.752,32.245 15.154,43.076 12.995,55.782 L 58.812,73.996 C 58.907,72.776 59.303,71.664 59.948,70.757 L 59.949,70.758 z"
   style="opacity:0.9" />
		</g><path
   id="path76"
   d="M 26.796,105.548 C 46.26,132.336 79.854,141.226 101.687,125.362 C 123.518,109.499 125.445,74.801 105.983,48.013 C 86.518,21.227 52.921,12.337 31.09,28.199 C 9.256,44.063 7.333,78.762 26.796,105.549 L 26.796,105.548 z M 103.556,49.777 C 122.046,75.227 120.416,108.045 99.924,122.936 C 79.432,137.826 47.716,129.234 29.224,103.785 C 19.042,89.773 14.589,72.983 17.006,57.723 C 18.804,46.368 24.432,36.744 32.853,30.626 C 53.346,15.737 85.063,24.328 103.555,49.777 L 103.556,49.777 z"
   style="fill:url(#linearGradient2593);fill-rule:nonzero;stroke:none;stroke-width:0;stroke-miterlimit:4" /><path
   id="path83"
   d="M 64.645,17.695 C 81.531,20.368 97.602,30.69 108.735,46.013 C 129.258,74.259 126.959,111.041 103.609,128.006 C 93.787,135.143 81.188,137.935 68.133,135.867 C 51.247,133.193 35.177,122.871 24.044,107.55 C 14.918,94.99 10.012,80.313 10.012,66.129 C 10.012,63.009 10.249,59.912 10.732,56.867 C 12.799,43.812 19.348,32.693 29.171,25.556 C 38.992,18.419 51.591,15.627 64.645,17.694 L 64.645,17.695 z M 101.258,124.771 C 122.819,109.105 124.724,74.824 105.499,48.365 C 86.273,21.903 53.083,13.125 31.522,28.792 C 9.956,44.461 8.053,78.738 27.281,105.199 C 46.505,131.657 79.694,140.439 101.259,124.771 L 101.258,124.771 z"
   style="fill:url(#linearGradient2590);fill-rule:nonzero;stroke:none;stroke-width:0;stroke-miterlimit:4" /><path
   id="path90"
   d="M 60.107,81.349 C 63.194,85.599 68.526,87.01 71.992,84.491 C 75.458,81.975 75.764,76.466 72.677,72.215 C 69.586,67.963 64.252,66.551 60.786,69.069 C 57.321,71.586 57.016,77.095 60.107,81.349 L 60.107,81.349 z M 69.44,74.565 C 70.494,76.017 70.983,77.77 70.748,79.254 C 70.65,79.871 70.379,80.719 69.641,81.254 C 68.905,81.79 68.012,81.786 67.394,81.688 C 65.911,81.453 64.397,80.447 63.343,78.996 C 62.287,77.543 61.797,75.788 62.032,74.304 C 62.13,73.687 62.401,72.839 63.137,72.304 L 63.137,72.304 C 64.761,71.124 67.707,72.18 69.44,74.564 L 69.44,74.565 z"
   style="fill:url(#linearGradient2587);fill-rule:nonzero;stroke:none;stroke-width:0;stroke-miterlimit:4" /><path
   id="path97"
   d="M 54.311,85.558 C 60.249,93.73 70.499,96.441 77.158,91.601 C 83.819,86.762 84.405,76.178 78.468,68.006 C 72.531,59.834 62.281,57.12 55.621,61.959 C 48.96,66.8 48.374,77.386 54.311,85.558 L 54.311,85.558 z M 58.022,82.863 C 53.908,77.2 54.315,69.866 58.928,66.513 C 63.543,63.161 70.643,65.039 74.756,70.702 C 78.87,76.365 78.463,83.696 73.851,87.049 C 69.235,90.403 62.134,88.523 58.022,82.863 z"
   style="opacity:0.5;fill:url(#linearGradient2584);fill-rule:nonzero;stroke:none;stroke-width:0;stroke-miterlimit:4" />
</svg>