<?xml version="1.0" encoding="UTF-8" standalone="no"?>
<!-- Created with Inkscape (http://www.inkscape.org/) -->

<svg
   xmlns:dc="http://purl.org/dc/elements/1.1/"
   xmlns:cc="http://creativecommons.org/ns#"
   xmlns:rdf="http://www.w3.org/1999/02/22-rdf-syntax-ns#"
   xmlns:svg="http://www.w3.org/2000/svg"
   xmlns="http://www.w3.org/2000/svg"
   xmlns:xlink="http://www.w3.org/1999/xlink"
   xmlns:sodipodi="http://sodipodi.sourceforge.net/DTD/sodipodi-0.dtd"
   xmlns:inkscape="http://www.inkscape.org/namespaces/inkscape"
   version="1.0"
   width="32"
   height="32"
   id="svg44406"
   inkscape:version="0.48.3.1 r9886"
   sodipodi:docname="folder-video.svg">
  <metadata
     id="metadata93">
    <rdf:RDF>
      <cc:Work
         rdf:about="">
        <dc:format>image/svg+xml</dc:format>
        <dc:type
           rdf:resource="http://purl.org/dc/dcmitype/StillImage" />
      </cc:Work>
    </rdf:RDF>
  </metadata>
  <sodipodi:namedview
     pagecolor="#ffffff"
     bordercolor="#666666"
     borderopacity="1"
     objecttolerance="10"
     gridtolerance="10"
     guidetolerance="10"
     inkscape:pageopacity="0"
     inkscape:pageshadow="2"
     inkscape:window-width="640"
     inkscape:window-height="453"
     id="namedview91"
     showgrid="false"
     inkscape:zoom="7.375"
     inkscape:cx="16"
     inkscape:cy="15.176918"
     inkscape:window-x="545"
     inkscape:window-y="270"
     inkscape:window-maximized="0"
     inkscape:current-layer="svg44406" />
  <defs
     id="defs44408">
    <linearGradient
       id="linearGradient3484">
      <stop
         id="stop3486"
         style="stop-color:#bdbdbd;stop-opacity:1"
         offset="0" />
      <stop
         id="stop3488"
         style="stop-color:#d0d0d0;stop-opacity:1"
         offset="1" />
    </linearGradient>
    <linearGradient
       id="linearGradient6404">
      <stop
         id="stop6406"
         style="stop-color:#f9f9f9;stop-opacity:1"
         offset="0" />
      <stop
         id="stop6408"
         style="stop-color:#c9c9c9;stop-opacity:1"
         offset="1" />
    </linearGradient>
    <linearGradient
       id="linearGradient5048-585">
      <stop
         id="stop2667"
         style="stop-color:#000000;stop-opacity:0"
         offset="0" />
      <stop
         id="stop2669"
         style="stop-color:#000000;stop-opacity:1"
         offset="0.5" />
      <stop
         id="stop2671"
         style="stop-color:#000000;stop-opacity:0"
         offset="1" />
    </linearGradient>
    <linearGradient
       id="linearGradient5060-179">
      <stop
         id="stop2675"
         style="stop-color:#000000;stop-opacity:1"
         offset="0" />
      <stop
         id="stop2677"
         style="stop-color:#000000;stop-opacity:0"
         offset="1" />
    </linearGradient>
    <linearGradient
       id="linearGradient5060-820">
      <stop
         id="stop2681"
         style="stop-color:#000000;stop-opacity:1"
         offset="0" />
      <stop
         id="stop2683"
         style="stop-color:#000000;stop-opacity:0"
         offset="1" />
    </linearGradient>
    <linearGradient
       id="linearGradient3390">
      <stop
         id="stop3392"
         style="stop-color:#425e7b;stop-opacity:1"
         offset="0" />
      <stop
         id="stop3394"
         style="stop-color:#7a91a7;stop-opacity:1"
         offset="1" />
    </linearGradient>
    <linearGradient
       id="linearGradient7012-661-145-733-759-865-745">
      <stop
         id="stop2699"
         style="stop-color:#9cbbd9;stop-opacity:1"
         offset="0" />
      <stop
         id="stop2701"
         style="stop-color:#5c82ab;stop-opacity:1"
         offset="1" />
    </linearGradient>
    <linearGradient
       id="linearGradient6129-963-697-142-998-580-273">
      <stop
         id="stop2661"
         style="stop-color:#0a0a0a;stop-opacity:0.498"
         offset="0" />
      <stop
         id="stop2663"
         style="stop-color:#0a0a0a;stop-opacity:0"
         offset="1" />
    </linearGradient>
    <linearGradient
       id="linearGradient6087-437-184-795-110-662-495">
      <stop
         id="stop2693"
         style="stop-color:#ffffff;stop-opacity:0.40000001"
         offset="0" />
      <stop
         id="stop2695"
         style="stop-color:#ffffff;stop-opacity:0"
         offset="1" />
    </linearGradient>
    <linearGradient
       id="linearGradient8265-821-176-38-919-66-249">
      <stop
         id="stop2687"
         style="stop-color:#ffffff;stop-opacity:0.2"
         offset="0" />
      <stop
         id="stop2689"
         style="stop-color:#ffffff;stop-opacity:0"
         offset="1" />
    </linearGradient>
    <linearGradient
       x1="11.566265"
       y1="22.292103"
       x2="15.214532"
       y2="33.95525"
       id="linearGradient2431"
       xlink:href="#linearGradient8265-821-176-38-919-66-249"
       gradientUnits="userSpaceOnUse"
       gradientTransform="matrix(0.6515346,0,0,0.6760494,0.3603499,0.1849652)" />
    <radialGradient
       cx="7.2646537"
       cy="8.3021259"
       r="20.979567"
       fx="7.2646537"
       fy="8.3021259"
       id="radialGradient2434"
       xlink:href="#linearGradient6087-437-184-795-110-662-495"
       gradientUnits="userSpaceOnUse"
       gradientTransform="matrix(0,0.7386341,-0.9984871,0,17.148572,6.8540185)" />
    <linearGradient
       x1="22.934725"
       y1="49.629246"
       x2="22.809399"
       y2="36.657963"
       id="linearGradient2437"
       xlink:href="#linearGradient6129-963-697-142-998-580-273"
       gradientUnits="userSpaceOnUse"
       gradientTransform="matrix(0.7467531,0,0,0.6554922,-1.9220764,1.1676179)" />
    <radialGradient
       cx="63.969177"
       cy="14.113381"
       r="23.097054"
       fx="63.969177"
       fy="14.113381"
       id="radialGradient2440"
       xlink:href="#linearGradient7012-661-145-733-759-865-745"
       gradientUnits="userSpaceOnUse"
       gradientTransform="matrix(1.007989,-6.1246211e-8,3.9794263e-8,0.6539555,-55.005411,6.1061543)" />
    <linearGradient
       x1="82.453476"
       y1="45.114193"
       x2="82.453476"
       y2="10.82615"
       id="linearGradient2442"
       xlink:href="#linearGradient3390"
       gradientUnits="userSpaceOnUse"
       gradientTransform="matrix(0.644209,0,0,0.643728,-34.102646,0.7887616)" />
    <linearGradient
       x1="62.988873"
       y1="13.182598"
       x2="62.988873"
       y2="16.19013"
       id="linearGradient2454"
       xlink:href="#linearGradient6404"
       gradientUnits="userSpaceOnUse"
       gradientTransform="matrix(0.627907,0,0,0.6348983,-31.055913,1.1034431)" />
    <radialGradient
       cx="3"
       cy="5.01718"
       r="21"
       fx="3"
       fy="5.01718"
       id="radialGradient2456"
       xlink:href="#linearGradient3484"
       gradientUnits="userSpaceOnUse"
       gradientTransform="matrix(0,1.0884009,-1.355859,0,8.9733195,2.9173483)" />
    <linearGradient
       x1="302.85715"
       y1="366.64789"
       x2="302.85715"
       y2="609.50507"
       id="linearGradient2463"
       xlink:href="#linearGradient5048-585"
       gradientUnits="userSpaceOnUse"
       gradientTransform="matrix(0.05114282,0,0,0.01591575,-2.4899573,22.29927)" />
    <radialGradient
       cx="605.71429"
       cy="486.64789"
       r="117.14286"
       fx="605.71429"
       fy="486.64789"
       id="radialGradient2465"
       xlink:href="#linearGradient5060-179"
       gradientUnits="userSpaceOnUse"
       gradientTransform="matrix(0.01983573,0,0,0.01591575,16.38765,22.29927)" />
    <radialGradient
       cx="605.71429"
       cy="486.64789"
       r="117.14286"
       fx="605.71429"
       fy="486.64789"
       id="radialGradient2467"
       xlink:href="#linearGradient5060-820"
       gradientUnits="userSpaceOnUse"
       gradientTransform="matrix(-0.01983573,0,0,0.01591575,15.60139,22.29927)" />
    <linearGradient
       id="linearGradient3932">
      <stop
         id="stop3934"
         style="stop-color:#828282;stop-opacity:1"
         offset="0" />
      <stop
         id="stop3936"
         style="stop-color:#434343;stop-opacity:1"
         offset="1" />
    </linearGradient>
    <linearGradient
       id="linearGradient3582">
      <stop
         id="stop3584"
         style="stop-color:#333333;stop-opacity:1"
         offset="0" />
      <stop
         id="stop3586"
         style="stop-color:#5a5a5a;stop-opacity:1"
         offset="1" />
    </linearGradient>
    <linearGradient
       x1="12.872127"
       y1="5.0561161"
       x2="12.872127"
       y2="21.467987"
       id="linearGradient3294"
       xlink:href="#linearGradient3522"
       gradientUnits="userSpaceOnUse"
       gradientTransform="matrix(0.6581265,0,0,0.6674529,13.39223,15.787296)" />
    <linearGradient
       x1="5.6597543"
       y1="18.299864"
       x2="5.6597543"
       y2="1"
       id="linearGradient3296"
       xlink:href="#linearGradient3582"
       gradientUnits="userSpaceOnUse"
       gradientTransform="matrix(0.8374561,0,0,0.8569233,13.481556,15.322905)" />
    <linearGradient
       x1="5.4499502"
       y1="-0.3819541"
       x2="5.4499502"
       y2="18.299162"
       id="linearGradient3299"
       xlink:href="#linearGradient3932"
       gradientUnits="userSpaceOnUse"
       gradientTransform="matrix(0.8527832,0,0,0.8564799,13.352374,15.327136)" />
    <linearGradient
       x1="2.6708329"
       y1="18.300243"
       x2="2.6708329"
       y2="0.7810511"
       id="linearGradient3301"
       xlink:href="#linearGradient3582"
       gradientUnits="userSpaceOnUse"
       gradientTransform="matrix(0.8527832,0,0,0.8564799,13.352374,15.327136)" />
    <linearGradient
       id="linearGradient3576">
      <stop
         id="stop3578"
         style="stop-color:#9fbad6;stop-opacity:1"
         offset="0" />
      <stop
         id="stop3580"
         style="stop-color:#587b9f;stop-opacity:1"
         offset="1" />
    </linearGradient>
    <linearGradient
       id="linearGradient3522">
      <stop
         id="stop3524"
         style="stop-color:#81aac3;stop-opacity:1"
         offset="0" />
      <stop
         id="stop3526"
         style="stop-color:#4e82a3;stop-opacity:1"
         offset="1" />
    </linearGradient>
    <linearGradient
       x1="17"
       y1="15"
       x2="17"
       y2="30"
       id="linearGradient4689"
       xlink:href="#linearGradient3576"
       gradientUnits="userSpaceOnUse" />
    <radialGradient
       cx="605.71429"
       cy="486.64789"
       r="117.14286"
       fx="605.71429"
       fy="486.64789"
       id="radialGradient2464"
       xlink:href="#linearGradient5060-179-9"
       gradientUnits="userSpaceOnUse"
       gradientTransform="matrix(0.03079083,0,0,0.02470588,24.610252,31.941642)" />
    <linearGradient
       id="linearGradient5060-179-9">
      <stop
         id="stop2675-3"
         style="stop-color:#000000;stop-opacity:1"
         offset="0" />
      <stop
         id="stop2677-9"
         style="stop-color:#000000;stop-opacity:0"
         offset="1" />
    </linearGradient>
    <linearGradient
       x1="302.85715"
       y1="366.64789"
       x2="302.85715"
       y2="609.50507"
       id="linearGradient2868"
       xlink:href="#linearGradient5048"
       gradientUnits="userSpaceOnUse"
       gradientTransform="matrix(0.03816858,0,0,0.01509651,20.237967,38.732952)" />
    <linearGradient
       id="linearGradient5048">
      <stop
         id="stop5050"
         style="stop-color:#000000;stop-opacity:0"
         offset="0" />
      <stop
         id="stop5056"
         style="stop-color:#000000;stop-opacity:1"
         offset="0.5" />
      <stop
         id="stop5052"
         style="stop-color:#000000;stop-opacity:0"
         offset="1" />
    </linearGradient>
    <radialGradient
       cx="605.71429"
       cy="486.64789"
       r="117.14286"
       fx="605.71429"
       fy="486.64789"
       id="radialGradient2865"
       xlink:href="#linearGradient5060"
       gradientUnits="userSpaceOnUse"
       gradientTransform="matrix(0.03816858,0,0,0.01509651,20.245478,38.732952)" />
    <linearGradient
       id="linearGradient5060">
      <stop
         id="stop5062"
         style="stop-color:#000000;stop-opacity:1"
         offset="0" />
      <stop
         id="stop5064"
         style="stop-color:#000000;stop-opacity:0"
         offset="1" />
    </linearGradient>
    <radialGradient
       cx="605.71429"
       cy="486.64789"
       r="117.14286"
       fx="605.71429"
       fy="486.64789"
       id="radialGradient2862"
       xlink:href="#linearGradient5060"
       gradientUnits="userSpaceOnUse"
       gradientTransform="matrix(-0.03816858,0,0,0.01509651,47.820891,38.732952)" />
    <linearGradient
       id="linearGradient3445">
      <stop
         id="stop3447"
         style="stop-color:#000000;stop-opacity:1"
         offset="0" />
      <stop
         id="stop3449"
         style="stop-color:#000000;stop-opacity:0"
         offset="1" />
    </linearGradient>
    <radialGradient
       cx="33"
       cy="37.276733"
       r="8"
       fx="33"
       fy="37.276733"
       id="radialGradient2919"
       xlink:href="#linearGradient4432"
       gradientUnits="userSpaceOnUse"
       gradientTransform="matrix(1.2920599,-0.7459713,0.6627486,1.1479143,-34.343085,7.3187)" />
    <linearGradient
       id="linearGradient4432">
      <stop
         id="stop4434"
         style="stop-color:#f6b2ee;stop-opacity:1"
         offset="0" />
      <stop
         id="stop4436"
         style="stop-color:#d979cd;stop-opacity:1"
         offset="0.26238" />
      <stop
         id="stop4438"
         style="stop-color:#753da6;stop-opacity:1"
         offset="0.66093999" />
      <stop
         id="stop4440"
         style="stop-color:#0f1027;stop-opacity:1"
         offset="1" />
    </linearGradient>
    <radialGradient
       cx="33"
       cy="37.276733"
       r="8"
       fx="33"
       fy="37.276733"
       id="radialGradient2908"
       xlink:href="#linearGradient4432"
       gradientUnits="userSpaceOnUse"
       gradientTransform="matrix(1.2920599,-0.7459713,0.6627486,1.1479143,-34.343085,19.318697)" />
    <linearGradient
       id="linearGradient3458">
      <stop
         id="stop3460"
         style="stop-color:#f6b2ee;stop-opacity:1"
         offset="0" />
      <stop
         id="stop3462"
         style="stop-color:#d979cd;stop-opacity:1"
         offset="0.26238" />
      <stop
         id="stop3464"
         style="stop-color:#753da6;stop-opacity:1"
         offset="0.66093999" />
      <stop
         id="stop3466"
         style="stop-color:#0f1027;stop-opacity:1"
         offset="1" />
    </linearGradient>
    <linearGradient
       x1="3.0525408"
       y1="2.189693"
       x2="3.0525408"
       y2="9.8754826"
       id="linearGradient3642"
       xlink:href="#linearGradient3576-4"
       gradientUnits="userSpaceOnUse"
       gradientTransform="matrix(2.5447729,0,0,2.8624253,17.231977,15.732168)" />
    <linearGradient
       id="linearGradient3576-4">
      <stop
         id="stop3578-0"
         style="stop-color:#9fbad6;stop-opacity:1"
         offset="0" />
      <stop
         id="stop3580-6"
         style="stop-color:#587b9f;stop-opacity:1"
         offset="1" />
    </linearGradient>
    <linearGradient
       x1="3.0525408"
       y1="2.189693"
       x2="3.0525408"
       y2="9.8754826"
       id="linearGradient3658"
       xlink:href="#linearGradient3576-4"
       gradientUnits="userSpaceOnUse"
       gradientTransform="matrix(2.5447729,0,0,2.8624253,35.231977,15.732168)" />
    <linearGradient
       id="linearGradient3473">
      <stop
         id="stop3475"
         style="stop-color:#9fbad6;stop-opacity:1"
         offset="0" />
      <stop
         id="stop3477"
         style="stop-color:#587b9f;stop-opacity:1"
         offset="1" />
    </linearGradient>
    <linearGradient
       y2="9.8754826"
       x2="3.0525408"
       y1="2.189693"
       x1="3.0525408"
       gradientTransform="matrix(2.5447729,0,0,2.8624253,35.231977,15.732168)"
       gradientUnits="userSpaceOnUse"
       id="linearGradient3496"
       xlink:href="#linearGradient3576-4"
       inkscape:collect="always" />
  </defs>
  <path
     d="M 4,6.5000785 C 3.566574,6.5049492 3.5,6.7173065 3.5,7.1349768 L 3.5,8.5 c -1.2456805,0 -1,-0.0018 -1,0.5438922 0.021607,6.5331318 0,6.9014318 0,7.4561078 0.9013419,0 26.999999,-2.348954 26.999999,-3.36005 l 0,-4.0960578 C 29.499999,8.6262224 29.152009,8.4951297 28.718581,8.5 L 14.5,8.5 l 0,-1.3650232 c 0,-0.4176703 -0.264249,-0.639769 -0.697676,-0.6348983 l -9.802324,0 z"
     id="path3468"
     style="fill:url(#linearGradient2454);fill-opacity:1;stroke:url(#radialGradient2456);stroke-width:1.00000012;stroke-linecap:round;stroke-linejoin:round;stroke-miterlimit:4;stroke-opacity:1;stroke-dasharray:none;display:inline" />
  <g
     transform="translate(0,-1.000001)"
     id="g2458">
    <rect
       width="24.694677"
       height="3.8652544"
       x="3.6471815"
       y="28.134747"
       id="rect4173"
       style="opacity:0.3;fill:url(#linearGradient2463);fill-opacity:1;fill-rule:nonzero;stroke:none;stroke-width:1;marker:none;visibility:visible;display:inline;overflow:visible" />
    <path
       d="m 28.341859,28.13488 c 0,0 0,3.865041 0,3.865041 1.021491,0.0073 2.469468,-0.86596 2.469468,-1.932769 0,-1.06681 -1.139908,-1.932272 -2.469468,-1.932272 z"
       id="path5058"
       style="opacity:0.3;fill:url(#radialGradient2465);fill-opacity:1;fill-rule:nonzero;stroke:none;stroke-width:1;marker:none;visibility:visible;display:inline;overflow:visible" />
    <path
       d="m 3.6471816,28.13488 c 0,0 0,3.865041 0,3.865041 -1.0214912,0.0073 -2.4694678,-0.86596 -2.4694678,-1.932769 0,-1.06681 1.1399068,-1.932272 2.4694678,-1.932272 z"
       id="path5018"
       style="opacity:0.3;fill:url(#radialGradient2467);fill-opacity:1;fill-rule:nonzero;stroke:none;stroke-width:1;marker:none;visibility:visible;display:inline;overflow:visible" />
  </g>
  <path
     d="m 1.9268353,11.499999 c -0.6910475,0.07963 -0.3219563,0.902583 -0.3770536,1.365355 0.080193,0.299061 0.5977147,15.717983 0.5977147,16.247438 0,0.460177 0.2266674,0.382214 0.8010059,0.382214 8.4994007,0 17.8980787,0 26.3974797,0 0.618726,0.01434 0.487967,0.0075 0.487967,-0.389471 0.04522,-0.202682 0.639926,-16.978471 0.662817,-17.243439 0,-0.278994 0.0581,-0.362097 -0.30493,-0.362097 -9.076502,0 -19.188496,0 -28.2650007,0 z"
     id="path3388"
     style="fill:url(#radialGradient2440);fill-opacity:1;stroke:url(#linearGradient2442);stroke-width:1;stroke-linecap:round;stroke-linejoin:round;stroke-miterlimit:4;stroke-opacity:1;stroke-dashoffset:0" />
  <path
     d="m 1.6818182,11 28.6363638,2.66e-4 C 30.731883,11.000266 31,11.29236 31,11.655504 l -0.673506,17.712101 c 0.0096,0.459485 -0.136401,0.641669 -0.617069,0.632034 L 2.4532999,29.988097 c -0.4137015,0 -0.8308665,-0.271173 -0.8308665,-0.634315 L 1,11.655493 C 1,11.292349 1.2681168,11 1.6818182,11 z"
     id="path6127"
     style="opacity:0.4;fill:url(#linearGradient2437);fill-opacity:1;stroke:none" />
  <path
     d="m 29.5,12.5 c -8.303268,0 -18.696734,0 -27.0000002,0 0.2365057,5 0.4730113,10.000001 0.709517,15.000001"
     id="path2435"
     style="fill:none;stroke:url(#radialGradient2434);stroke-width:0.99999952;stroke-linecap:round;stroke-linejoin:round;stroke-miterlimit:4;stroke-opacity:1;stroke-dasharray:none" />
  <path
     d="M 30.405737,11.017168 C 20.926175,11.066755 11.205415,10.987455 1.7245005,11.001754 0.54733374,11.279689 1.1808557,12.669304 1.0909311,13.551491 1.235591,16.366119 1.3014202,19.193082 1.4951832,22 11.268537,20.402631 20.993365,18.885268 30.595629,17.234084 c 0.508843,-1.748654 0.371883,-4.904859 0.398582,-5.544433 0.05125,-0.456713 -0.245376,-0.680134 -0.588474,-0.672483 z"
     id="path3455"
     style="fill:url(#linearGradient2431);fill-opacity:1;stroke:none" />
  <g
     transform="matrix(1.08507,0,0,0.8743473,42.855411,15.125544)"
     id="g3133"
     style="display:inline" />
  <g
     transform="matrix(1.08507,0,0,0.8743473,42.855411,13.125544)"
     id="g4118"
     style="display:inline" />
  <g
     transform="matrix(1.08507,0,0,0.8743473,42.855411,11.125544)"
     id="g4122"
     style="display:inline" />
  <g
     transform="matrix(1.08507,0,0,0.8743473,42.855411,9.125544)"
     id="g4126"
     style="display:inline" />
  <g
     transform="matrix(1.08507,0,0,0.8743473,42.855411,7.125544)"
     id="g4130"
     style="display:inline" />
  <g
     transform="matrix(1.08507,0,0,0.8743473,42.855411,5.125544)"
     id="g4134"
     style="display:inline" />
  <g
     transform="matrix(1.08507,0,0,0.8743473,42.855411,3.125544)"
     id="g4138"
     style="display:inline" />
  <g
     transform="matrix(1.08507,0,0,0.8743473,42.855411,1.125544)"
     id="g4142"
     style="display:inline" />
  <g
     transform="matrix(1.08507,0,0,0.8743473,30.855411,15.125544)"
     id="g4146"
     style="display:inline" />
  <g
     transform="matrix(1.08507,0,0,0.8743473,30.855411,13.125544)"
     id="g4150"
     style="display:inline" />
  <g
     transform="matrix(1.08507,0,0,0.8743473,30.855411,11.125544)"
     id="g4154"
     style="display:inline" />
  <g
     transform="matrix(1.08507,0,0,0.8743473,30.855411,9.125544)"
     id="g4158"
     style="display:inline" />
  <g
     transform="matrix(1.08507,0,0,0.8743473,30.855411,7.125544)"
     id="g4162"
     style="display:inline" />
  <g
     transform="matrix(1.08507,0,0,0.8743473,30.855411,5.125544)"
     id="g4166"
     style="display:inline" />
  <g
     transform="matrix(1.08507,0,0,0.8743473,30.855411,3.125544)"
     id="g4170"
     style="display:inline" />
  <g
     transform="matrix(0.63074815,0,0,0.63074815,0.325715,1.2231482)"
     id="g3104">
    <path
       inkscape:connector-curvature="0"
       style="opacity:0.3;fill:url(#radialGradient2464);fill-opacity:1;fill-rule:nonzero;stroke:none;stroke-width:1;marker:none;visibility:visible;display:inline;overflow:visible"
       id="path5058-2"
       d="m 43.166666,41.000208 c 0,0 0,5.99967 0,5.99967 1.585652,0.01129 3.833334,-1.344222 3.833333,-3.000221 0,-1.656 -1.769468,-2.999449 -3.833333,-2.999449 z" />
    <g
       style="opacity:0.4"
       id="g2872"
       transform="matrix(0.9307775,0,0,0.979386,1.3226808,1.0537664)">
      <rect
         style="opacity:0.40206185;fill:url(#linearGradient2868);fill-opacity:1;fill-rule:nonzero;stroke:none;stroke-width:1;marker:none;visibility:visible;display:inline;overflow:visible"
         id="rect2768"
         y="44.268055"
         x="24.818197"
         height="3.6662951"
         width="18.429968" />
      <path
         inkscape:connector-curvature="0"
         style="opacity:0.40206185;fill:url(#radialGradient2865);fill-opacity:1;fill-rule:nonzero;stroke:none;stroke-width:1;marker:none;visibility:visible;display:inline;overflow:visible"
         id="path2770"
         d="m 43.248167,44.268181 c 0,0 0,3.666092 0,3.666092 1.965587,0.0069 4.751834,-0.821384 4.751833,-1.833282 0,-1.011896 -2.193448,-1.83281 -4.751833,-1.83281 z" />
      <path
         inkscape:connector-curvature="0"
         style="opacity:0.40206185;fill:url(#radialGradient2862);fill-opacity:1;fill-rule:nonzero;stroke:none;stroke-width:1;marker:none;visibility:visible;display:inline;overflow:visible"
         id="path2772"
         d="m 24.818197,44.268181 c 0,0 0,3.666092 0,3.666092 -1.965588,0.0069 -4.751834,-0.821384 -4.751834,-1.833282 0,-1.011896 2.193447,-1.83281 4.751834,-1.83281 z" />
      <rect
         style="fill:#ffffff;fill-opacity:1;stroke:none"
         id="rect3482"
         y="43.850159"
         x="24.272263"
         height="1.1327641"
         width="1.1348009" />
      <rect
         style="fill:#ffffff;fill-opacity:1;stroke:none"
         id="rect2579"
         y="43.850159"
         x="42.65604"
         height="1.1327641"
         width="1.1348009" />
    </g>
    <path
       inkscape:connector-curvature="0"
       style="fill:#4d4d4d;fill-opacity:1;fill-rule:nonzero;stroke:#333333;stroke-width:1;stroke-linecap:butt;stroke-linejoin:round;stroke-miterlimit:4;stroke-opacity:1;stroke-dasharray:none;stroke-dashoffset:0;marker:none;visibility:visible;display:block;overflow:visible"
       id="path3570"
       d="m 25.5,45.499661 c -0.958616,0 -1.917233,0 -2.875849,0 -0.233002,-0.296005 -0.05582,-0.883697 -0.111186,-1.30275 0,-7.850971 0,-15.701949 0,-23.552922 l 0.03249,-0.101665 0.07869,-0.04198 0,0 c 0.997725,0 1.839016,0 2.836742,0" />
    <path
       inkscape:connector-curvature="0"
       style="fill:#4d4d4d;fill-opacity:1;fill-rule:nonzero;stroke:#333333;stroke-width:0.99999994;stroke-linecap:butt;stroke-linejoin:round;stroke-miterlimit:4;stroke-opacity:1;stroke-dasharray:none;stroke-dashoffset:0;marker:none;visibility:visible;display:block;overflow:visible"
       id="path2702"
       d="m 40.5,20.5 c 0.967227,0 1.930316,0 2.886179,0 0.135691,0 0.11228,0.785325 0.11228,1.302781 0,7.851187 2e-6,15.702373 2e-6,23.553562 0,0.134055 -0.443979,0.143657 -1.018269,0.143657 -0.651966,0 -1.30393,0 -1.955895,0" />
    <rect
       style="fill:url(#radialGradient2919);fill-opacity:1;stroke:#333333;stroke-width:1;stroke-linecap:butt;stroke-linejoin:miter;stroke-miterlimit:4;stroke-opacity:1;stroke-dasharray:none;stroke-dashoffset:0;display:inline"
       id="rect4452"
       y="20.5"
       x="25.500002"
       ry="0"
       rx="0"
       height="13"
       width="15" />
    <path
       inkscape:connector-curvature="0"
       style="opacity:0.3;fill:none;stroke:#ffffff;stroke-width:1;stroke-linecap:square;stroke-linejoin:round;stroke-miterlimit:4;stroke-opacity:1;stroke-dasharray:none;stroke-dashoffset:0;marker:none;visibility:visible;display:block;overflow:visible"
       id="rect15660"
       d="m 26.530107,21.52381 c 4.313285,0 8.626569,0 12.939854,0" />
    <rect
       style="fill:url(#radialGradient2908);fill-opacity:1;stroke:#333333;stroke-width:1;stroke-linecap:butt;stroke-linejoin:miter;stroke-miterlimit:4;stroke-opacity:1;stroke-dasharray:none;stroke-dashoffset:0;display:inline"
       id="rect2940"
       y="32.499996"
       x="25.500002"
       ry="0"
       rx="0"
       height="13"
       width="15" />
    <path
       inkscape:connector-curvature="0"
       style="fill:url(#linearGradient3642);fill-opacity:1;stroke:none"
       id="rect3464"
       d="m 23,22 2,0 0,2 -2,0 0,-2 z m 0,4 2,0 0,2 -2,0 0,-2 z m 0,4 2,0 0,2 -2,0 0,-2 z m 0,4 2,0 0,2 -2,0 0,-2 z m 0,4 2,0 0,2 -2,0 0,-2 z m 0,4 2,0 0,2 -2,0 0,-2 z" />
    <path
       inkscape:connector-curvature="0"
       style="opacity:0.3;fill:none;stroke:#ffffff;stroke-width:1;stroke-linecap:square;stroke-linejoin:round;stroke-miterlimit:4;stroke-opacity:1;stroke-dasharray:none;stroke-dashoffset:0;marker:none;visibility:visible;display:block;overflow:visible"
       id="path4318"
       d="m 26.500002,33.499999 c 4.333206,0 8.666413,0 12.999621,0" />
    <path
       inkscape:connector-curvature="0"
       style="fill:#333333;stroke:#333333;stroke-width:1;stroke-linecap:square;stroke-linejoin:round;stroke-miterlimit:4;stroke-opacity:1;stroke-dasharray:none;stroke-dashoffset:0;marker:none;visibility:visible;display:block;overflow:visible"
       id="path4320-9"
       d="m 26.500002,32.499999 c 4.333206,0 8.666413,0 12.999621,0" />
    <path
       inkscape:connector-curvature="0"
       style="fill:url(#linearGradient3496);fill-opacity:1;stroke:none"
       id="path3656"
       d="m 41,22 2,0 0,2 -2,0 0,-2 z m 0,4 2,0 0,2 -2,0 0,-2 z m 0,4 2,0 0,2 -2,0 0,-2 z m 0,4 2,0 0,2 -2,0 0,-2 z m 0,4 2,0 0,2 -2,0 0,-2 z m 0,4 2,0 0,2 -2,0 0,-2 z" />
  </g>
</svg>
