<?xml version="1.0" encoding="UTF-8" standalone="no"?>
<!-- Created with Inkscape (http://www.inkscape.org/) -->
<svg
   xmlns:dc="http://purl.org/dc/elements/1.1/"
   xmlns:cc="http://creativecommons.org/ns#"
   xmlns:rdf="http://www.w3.org/1999/02/22-rdf-syntax-ns#"
   xmlns:svg="http://www.w3.org/2000/svg"
   xmlns="http://www.w3.org/2000/svg"
   xmlns:sodipodi="http://sodipodi.sourceforge.net/DTD/sodipodi-0.dtd"
   xmlns:inkscape="http://www.inkscape.org/namespaces/inkscape"
   width="744.09448819"
   height="1052.3622047"
   id="svg2"
   sodipodi:version="0.32"
   inkscape:version="0.46"
   sodipodi:docbase="/home/clawlinux/Conversor_audio"
   sodipodi:docname="audio_conversor_logo2.svg"
   inkscape:output_extension="org.inkscape.output.svg.inkscape">
  <defs
     id="defs4">
    <inkscape:perspective
       sodipodi:type="inkscape:persp3d"
       inkscape:vp_x="0 : 526.18109 : 1"
       inkscape:vp_y="0 : 1000 : 0"
       inkscape:vp_z="744.09448 : 526.18109 : 1"
       inkscape:persp3d-origin="372.04724 : 350.78739 : 1"
       id="perspective13" />
    <inkscape:perspective
       id="perspective2393"
       inkscape:persp3d-origin="372.04724 : 350.78739 : 1"
       inkscape:vp_z="744.09448 : 526.18109 : 1"
       inkscape:vp_y="0 : 1000 : 0"
       inkscape:vp_x="0 : 526.18109 : 1"
       sodipodi:type="inkscape:persp3d" />
    <inkscape:perspective
       id="perspective2463"
       inkscape:persp3d-origin="372.04724 : 350.78739 : 1"
       inkscape:vp_z="744.09448 : 526.18109 : 1"
       inkscape:vp_y="0 : 1000 : 0"
       inkscape:vp_x="0 : 526.18109 : 1"
       sodipodi:type="inkscape:persp3d" />
    <inkscape:perspective
       id="perspective2519"
       inkscape:persp3d-origin="372.04724 : 350.78739 : 1"
       inkscape:vp_z="744.09448 : 526.18109 : 1"
       inkscape:vp_y="0 : 1000 : 0"
       inkscape:vp_x="0 : 526.18109 : 1"
       sodipodi:type="inkscape:persp3d" />
    <inkscape:perspective
       id="perspective2547"
       inkscape:persp3d-origin="372.04724 : 350.78739 : 1"
       inkscape:vp_z="744.09448 : 526.18109 : 1"
       inkscape:vp_y="0 : 1000 : 0"
       inkscape:vp_x="0 : 526.18109 : 1"
       sodipodi:type="inkscape:persp3d" />
  </defs>
  <sodipodi:namedview
     id="base"
     pagecolor="#ffffff"
     bordercolor="#666666"
     borderopacity="1.0"
     inkscape:pageopacity="0.0"
     inkscape:pageshadow="2"
     inkscape:zoom="0.64780147"
     inkscape:cx="443.85422"
     inkscape:cy="905.41538"
     inkscape:document-units="px"
     inkscape:current-layer="layer1"
     showguides="true"
     inkscape:guide-bbox="true"
     inkscape:window-width="1280"
     inkscape:window-height="726"
     inkscape:window-x="0"
     inkscape:window-y="0"
     showgrid="false" />
  <metadata
     id="metadata7">
    <rdf:RDF>
      <cc:Work
         rdf:about="">
        <dc:format>image/svg+xml</dc:format>
        <dc:type
           rdf:resource="http://purl.org/dc/dcmitype/StillImage" />
      </cc:Work>
    </rdf:RDF>
  </metadata>
  <g
     inkscape:label="Layer 1"
     inkscape:groupmode="layer"
     id="layer1">
    <path
       style="fill:#000000"
       d="M 287.80265,712.96051 C 288.49945,707.43668 289.79207,699.45133 290.67515,695.21529 C 291.64986,690.53967 291.21013,686.22339 289.55601,684.23033 C 288.05741,682.42463 287.09451,677.03866 287.41623,672.26156 C 287.89741,665.11675 288.47889,664.22919 290.69401,667.25858 C 292.17507,669.28402 294.07926,670.24882 294.92554,669.40255 C 297.91859,666.40952 296.404,659.877 291.73795,655.65426 C 289.13849,653.30176 287.01166,650.59371 287.01166,649.63632 C 287.01166,646.33849 298.77885,644.9497 303.22022,647.72344 C 306.85197,649.99147 308.9476,649.59284 314.61786,645.55527 C 318.43909,642.83427 324.43513,639.88785 327.94239,639.00756 C 331.44965,638.12727 334.90365,636.46147 335.61794,635.30572 C 336.33224,634.14996 339.3884,633.20438 342.40943,633.20438 C 350.50534,633.20438 353.76059,619.94392 347.26039,613.44373 C 344.65557,610.83892 343.33417,602.10078 342.32116,580.7817 C 341.56049,564.7735 339.71944,547.95388 338.22991,543.40482 C 336.74039,538.85575 335.49392,533.53871 335.45998,531.58908 C 335.41991,529.28648 333.54525,528.30344 330.11014,528.78371 C 324.43343,529.57739 322.92604,524.06556 327.04122,517.56218 C 328.82043,514.75043 329.82593,514.69879 332.91289,517.26076 C 336.0436,519.859 336.63772,519.74051 336.63772,516.51803 C 336.63772,514.40928 335.60768,512.68391 334.34874,512.68391 C 333.0898,512.68391 332.73088,510.93504 333.55114,508.79749 C 334.39954,506.58658 333.52556,503.78485 331.52391,502.29884 C 327.25484,499.12951 324.47574,489.54539 327.31666,487.78959 C 329.63338,486.35782 328.69464,457.51513 326.07528,449.64881 C 324.6984,445.51382 325.6778,443.84956 331.09184,441.12438 C 334.79194,439.2619 342.22446,437.59834 347.60855,437.42766 C 355.58301,437.17476 358.10205,438.19201 361.19663,442.91494 C 363.28599,446.1037 364.99547,451.68456 364.99547,455.31682 C 364.99547,459.25803 366.81554,463.05764 369.50924,464.73987 C 371.99182,466.29028 374.73218,470.78754 375.59892,474.73383 C 376.46567,478.68006 378.15842,482.51673 379.36058,483.2597 C 382.5764,485.24719 386.26378,473.74297 386.26378,461.72244 C 386.26378,451.32039 386.20203,451.24215 377.99277,451.24215 C 371.29719,451.24215 369.72176,450.34189 369.72176,446.51583 C 369.72176,443.9164 368.65835,441.78956 367.35862,441.78956 C 366.05889,441.78956 364.99547,440.72614 364.99547,439.4264 C 364.99547,438.06102 372.47877,437.06325 382.71906,437.06325 C 392.95936,437.06325 400.44266,438.06102 400.44266,439.4264 C 400.44266,440.72614 399.37924,441.78956 398.07951,441.78956 C 396.76665,441.78956 395.71636,448.09128 395.71636,455.96841 C 395.71636,464.13321 396.75017,470.14731 398.15368,470.14731 C 403.40677,470.14731 402.79555,477.0043 396.98346,483.27564 C 389.59743,491.24531 390.19616,494.14799 399.73592,496.62002 C 404.00311,497.72572 407.48691,500.4402 408.21573,503.22719 C 409.65287,508.72283 414.62153,509.64252 414.62153,504.41293 C 414.62153,500.13993 417.37883,499.84444 421.23834,503.70397 C 423.44394,505.9096 424.07411,504.59671 424.07411,497.7961 C 424.07411,490.62793 423.22253,489.05248 419.34782,489.05248 C 416.74836,489.05248 414.62153,490.1159 414.62153,491.41564 C 414.62153,492.71538 412.38093,493.77874 409.64241,493.77874 C 406.07298,493.77874 405.0694,492.72046 406.09769,490.04079 C 406.88661,487.98488 407.5321,485.32633 407.5321,484.13292 C 407.5321,482.93951 412.9978,481.96305 419.67809,481.96305 C 428.47435,481.96305 432.68987,480.82254 434.96338,477.82751 C 437.64687,474.29246 438.11359,476.86589 438.17783,495.55113 C 438.22269,508.59852 437.30037,517.41023 435.88984,517.41023 C 434.59012,517.41023 433.5267,514.75168 433.5267,511.50236 C 433.5267,504.9051 427.80197,503.35584 425.50852,509.33249 C 423.13066,515.52907 423.8816,519.77338 427.35584,519.77338 C 429.2661,519.77338 431.31951,523.40844 432.26937,528.47168 C 433.4768,534.90783 434.45766,536.29064 436.0409,533.78873 C 437.57093,531.37093 438.19093,532.63566 438.2168,538.22723 C 438.23818,542.84606 437.28569,545.44908 435.88984,544.58642 C 434.59012,543.78313 433.5267,544.69514 433.5267,546.61315 C 433.5267,548.53116 434.85596,550.5438 436.48063,551.08572 C 438.77115,551.84971 438.85321,554.25102 436.84605,561.77778 C 435.42236,567.11653 435.01409,572.70875 435.93878,574.20491 C 438.64999,578.59171 438.68039,611.39299 435.9748,613.06512 C 432.8366,615.00464 432.76427,626.11496 435.88984,626.11496 C 437.18957,626.11496 438.25299,628.77345 438.25299,632.02278 C 438.25299,638.97892 436.46002,639.48314 431.95096,633.79516 C 429.07339,630.16523 428.85255,630.99776 430.1445,640.60518 C 431.91304,653.75667 428.34012,657.40637 421.19978,649.7421 C 417.45272,645.72012 414.55448,644.79605 408.67777,645.7497 C 401.15163,646.97105 401.00802,646.82109 399.55539,636.22291 C 397.391,620.43205 397.75254,609.5729 400.44266,609.5729 C 401.74239,609.5729 402.8058,608.44673 402.8058,607.07029 C 402.8058,605.69385 401.74239,605.22489 400.44266,606.02819 C 399.03916,606.89562 398.07951,604.1299 398.07951,599.21766 C 398.07951,594.6686 399.02512,590.36228 400.18087,589.64799 C 405.36323,586.44509 405.24299,576.14085 399.93629,568.6883 C 396.97558,564.53035 394.81489,560.86257 395.13477,560.53765 C 395.45465,560.21268 395.71636,557.74937 395.71636,555.06358 C 395.71636,551.13059 394.4518,550.32585 389.21772,550.92809 C 383.1516,551.62609 382.67138,552.50568 382.00264,564.14417 C 381.59592,571.22244 380.31894,576.0147 379.04871,575.22963 C 375.38424,572.96489 376.51292,582.94241 380.35592,586.78545 C 382.64844,589.07798 383.90064,594.92684 383.90064,603.3424 C 383.90064,610.49916 385.17656,619.34831 386.73602,623.00717 C 388.29547,626.66604 389.79297,634.97671 390.06379,641.47536 C 390.82291,659.69178 393.48822,671.73752 397.90701,676.92256 C 400.12233,679.52199 401.73204,682.9781 401.48415,684.60276 C 401.23626,686.22743 400.90052,688.62012 400.73805,689.91986 C 400.08819,695.11877 395.73543,691.83508 393.903,684.76353 C 391.54136,675.64962 387.25313,673.62732 385.04456,680.58591 C 384.03737,683.75928 385.05493,688.71893 387.73371,693.69312 C 391.71366,701.08346 391.74921,701.9892 388.19866,705.53979 C 383.96224,709.77618 379.17435,708.20626 379.17435,702.58078 C 379.17435,700.59957 377.84507,699.43843 376.22041,700.00052 C 374.4927,700.59822 373.56252,704.0241 373.97963,708.25337 C 374.71997,715.75986 370.46262,720.9368 367.49626,716.13717 C 365.83542,713.44984 357.91011,714.93873 357.90185,717.93964 C 357.89956,718.77535 353.38004,719.75719 347.85848,720.12141 C 342.33693,720.48562 331.56731,721.38957 323.92599,722.13016 C 315.08032,722.98749 309.45698,722.54518 308.44807,720.91275 C 307.57653,719.50254 303.46022,717.6681 299.3007,716.83622 C 293.2746,715.63101 291.73795,716.1039 291.73795,719.16377 C 291.73795,721.27582 290.56746,723.00387 289.13685,723.00387 C 287.45344,723.00387 286.98272,719.46051 287.80265,712.96051 z M 350.06418,710.9804 C 355.66998,708.26672 363.86653,701.82893 368.27873,696.67425 C 380.47457,682.42612 381.68981,673.97406 376.79925,637.41358 C 374.49019,620.1516 370.22093,588.17583 367.31201,566.35627 C 364.40309,544.53672 362.64227,526.06515 363.39908,525.30832 C 366.43292,522.2745 382.00138,527.49687 391.48349,534.72913 C 406.57434,546.23927 414.53214,563.74917 414.58194,585.55359 C 414.60372,595.0882 412.80606,609.70254 410.58716,618.0298 C 407.38627,630.04231 407.1556,633.77314 409.47063,636.08814 C 420.49871,647.11628 435.54649,597.99452 430.99202,565.83408 C 427.00285,537.66548 419.66634,527.16273 378.65464,490.90913 C 364.73109,478.60097 358.18387,469.04629 351.06852,450.65137 C 348.21131,443.26476 338.15971,441.50419 335.68368,447.95661 C 334.88085,450.04879 339.55244,490.36382 346.06501,537.54566 C 352.57757,584.72744 357.90603,626.59547 357.90603,630.58568 C 357.90603,636.60132 356.79593,638.0685 351.40739,639.17466 C 317.17999,646.20083 296.59567,665.093 296.50312,689.56535 C 296.47072,698.13222 297.80304,701.18387 304.49894,707.87974 C 311.78436,715.16514 313.80835,715.91445 326.20272,715.91445 C 335.23382,715.91445 343.33013,714.24028 350.06418,710.9804 z M 319.5898,711.65086 C 310.62339,710.58804 301.19054,698.68818 301.19054,688.43958 C 301.19054,666.67288 322.26652,648.72988 353.54237,643.86999 C 358.29087,643.13209 362.77563,640.96581 363.5085,639.05592 C 364.68209,635.99765 357.59742,577.37186 350.80719,533.95223 C 336.77701,444.23744 337.06713,434.23138 352.77346,466.13549 C 360.00613,480.82712 365.53322,486.77254 398.56828,515.39649 C 416.65601,531.06897 424.64644,546.87916 425.96162,569.59813 C 426.58444,580.35692 425.96393,589.50167 424.43215,592.13855 C 422.21904,595.94837 421.84453,595.38354 421.78283,588.14271 C 421.57732,564.02574 406.17444,536.69121 386.97852,526.37767 C 370.50132,517.52478 361.2017,515.97851 358.1974,521.59208 C 355.72361,526.21441 359.38909,558.77951 369.90354,625.59301 C 377.42855,673.41022 376.71547,680.55782 362.93437,695.44792 C 352.1177,707.13497 335.11446,713.49113 319.5898,711.65086 z M 336.77739,701.41456 C 341.80524,699.90813 350.2199,694.16198 355.95416,688.3192 C 365.13323,678.96643 366.13074,676.84422 365.76689,667.44271 C 365.20532,652.93261 363.84977,651.50677 352.34644,653.32631 C 337.18882,655.72383 324.27205,663.11129 317.14177,673.46077 C 309.30356,684.83784 308.95108,691.35885 315.78134,698.62936 C 321.61434,704.8383 324.20354,705.18175 336.77739,701.41456 z M 363.70271,498.37009 C 353.95823,488.36887 351.01676,489.56536 354.19707,502.23669 C 355.39109,506.99403 357.09925,507.95764 364.33852,507.95764 L 373.0441,507.95764 L 363.70271,498.37009 z M 290.95024,704.88641 C 290.08375,704.01997 289.3748,704.72888 289.3748,706.46187 C 289.3748,708.19485 290.08375,708.90376 290.95024,708.03732 C 291.81672,707.17083 291.81672,705.7529 290.95024,704.88641 z M 385.93121,537.09622 C 379.78959,529.69602 370.56034,537.00877 373.12834,547.24049 L 374.69956,553.50072 L 381.62003,546.87049 C 386.9155,541.79709 387.92781,539.50201 385.93121,537.09622 z M 361.45075,721.82162 C 362.75049,721.37662 368.86512,720.33198 375.03884,719.50025 C 384.05009,718.28622 386.26378,717.08445 386.26378,713.40651 C 386.26378,710.40043 387.889,708.82502 390.99007,708.82502 C 394.14093,708.82502 395.71636,710.40043 395.71636,713.55129 C 395.71636,716.15077 396.77978,718.27761 398.07951,718.27761 C 399.37924,718.27761 400.44266,719.34103 400.44266,720.64076 C 400.44266,722.05032 392.09909,722.92862 379.76513,722.81731 C 368.39249,722.71471 360.15102,722.26667 361.45075,721.82162 z M 287.01166,695.82773 C 287.01166,695.17783 287.54337,694.64612 288.19324,694.64612 C 288.8431,694.64612 289.3748,695.17783 289.3748,695.82773 C 289.3748,696.47757 288.8431,697.00928 288.19324,697.00928 C 287.54337,697.00928 287.01166,696.47757 287.01166,695.82773 z M 407.79081,663.05546 C 405.83307,660.69648 405.72265,659.13567 407.43849,658.07524 C 411.08137,655.82384 419.76595,659.12561 418.6913,662.35342 C 417.3031,666.52302 411.00528,666.92863 407.79081,663.05546 z M 433.5267,660.38052 C 433.5267,658.43094 434.59012,656.83581 435.88984,656.83581 C 437.18957,656.83581 438.25299,658.43094 438.25299,660.38052 C 438.25299,662.33016 437.18957,663.92529 435.88984,663.92529 C 434.59012,663.92529 433.5267,662.33016 433.5267,660.38052 z M 434.31441,641.08151 C 435.1809,640.21506 436.59879,640.21506 437.46528,641.08151 C 438.33176,641.948 437.62282,642.65696 435.88984,642.65696 C 434.15687,642.65696 433.44793,641.948 434.31441,641.08151 z M 287.01166,628.7492 C 287.01166,625.35076 288.10195,624.31847 290.65626,625.29866 C 294.68963,626.84643 294.19352,631.20429 289.8179,632.66281 C 288.2595,633.18227 287.01166,631.44201 287.01166,628.7492 z M 311.82469,630.84122 C 311.02141,629.54148 311.4276,628.47806 312.72733,628.47806 C 314.02706,628.47806 315.7477,629.54148 316.55098,630.84122 C 317.35426,632.14096 316.94807,633.20438 315.64834,633.20438 C 314.34861,633.20438 312.62797,632.14096 311.82469,630.84122 z M 326.00357,609.57673 C 326.00357,597.88027 326.53528,588.32544 327.18514,588.34372 C 332.59679,588.49607 334.81157,594.34497 335.99487,611.60899 C 337.3024,630.68548 337.26728,630.84122 331.65832,630.84212 C 326.11292,630.84301 326.00357,630.43178 326.00357,609.57673 z M 384.49143,586.57801 C 382.86676,586.01129 381.53749,584.51004 381.53749,583.24193 C 381.53749,581.97377 382.60091,581.59346 383.90064,582.39675 C 385.20037,583.19999 386.26378,582.93434 386.26378,581.80632 C 386.26378,580.67826 387.82508,577.69111 389.73334,575.16818 C 393.023,570.81888 393.2068,570.96615 393.27807,578.00841 C 393.35283,585.3976 390.12697,588.54378 384.49143,586.57801 z M 324.82199,584.75986 C 324.82199,584.11002 325.3537,583.57831 326.00357,583.57831 C 326.65343,583.57831 327.18514,584.11002 327.18514,584.75986 C 327.18514,585.40976 326.65343,585.94147 326.00357,585.94147 C 325.3537,585.94147 324.82199,585.40976 324.82199,584.75986 z M 329.54828,559.15912 C 329.54828,555.12673 332.01736,552.64394 334.50098,554.1789 C 336.88505,555.65236 334.55773,562.30998 331.6586,562.30998 C 330.49793,562.30998 329.54828,560.89211 329.54828,559.15912 z M 322.45885,545.76798 C 322.45885,544.46824 323.52226,543.40482 324.82199,543.40482 C 326.12172,543.40482 327.18514,544.46824 327.18514,545.76798 C 327.18514,547.06771 326.12172,548.13113 324.82199,548.13113 C 323.52226,548.13113 322.45885,547.06771 322.45885,545.76798 z M 324.82199,438.24485 C 324.82199,437.59496 325.3537,437.06325 326.00357,437.06325 C 326.65343,437.06325 327.18514,437.59496 327.18514,438.24485 C 327.18514,438.8947 326.65343,439.4264 326.00357,439.4264 C 325.3537,439.4264 324.82199,438.8947 324.82199,438.24485 z"
       id="path2471"
       inkscape:export-xdpi="57"
       inkscape:export-ydpi="57" />
    <g
       id="g3355"
       transform="matrix(0.4767725,0,0,0.4767725,174.05405,33.66166)">
      <path
         inkscape:export-ydpi="90"
         inkscape:export-xdpi="90"
         inkscape:export-filename="/home/clawlinux/path1367.png"
         d="M -255.99704,535.17967 C -218.13297,393.42992 -180.63773,251.80627 -122.91886,116.13684 C -114.11954,96.787701 -110.13377,85.642141 -83.302626,80.815426 C -79.644946,80.157437 -77.747896,158.23767 -77.637456,159.723 C -71.612706,240.75421 -54.165516,321.35935 -40.082376,401.28246 C -36.267236,423.58051 -30.969286,445.57252 -25.486156,467.50478 L -51.130106,481.24513 C -55.008926,458.49324 -58.916276,435.74074 -61.927426,412.85291 C -66.295206,382.4811 -108.85158,99.779031 -108.18189,99.128581 C -101.71727,92.849591 -93.868286,87.850741 -85.604596,84.255111 C -78.089026,80.984996 -116.08541,113.20956 -98.695946,105.06892 C -162.66693,237.67353 -200.97321,377.77716 -227.76041,521.9187 L -255.99704,535.17967 z"
         id="path1309"
         style="fill:#004ccb;fill-opacity:1;fill-rule:nonzero;stroke:none;stroke-width:1px;stroke-linecap:butt;stroke-linejoin:miter;stroke-opacity:1" />
      <path
         inkscape:export-ydpi="90"
         inkscape:export-xdpi="90"
         inkscape:export-filename="/home/clawlinux/path1367.png"
         d="M -308.0831,351.72409 C -236.38519,298.08384 -123.77237,305.29692 -35.233726,300.5756 C 27.046924,298.08039 89.376894,297.10831 151.69664,296.15252 L 129.30241,312.40137 C 68.815694,310.62863 8.2698735,310.45972 -52.200156,313.04517 C -107.1284,316.14651 -161.316,321.77751 -215.8061,329.26813 C -240.84314,332.70992 -267.26714,334.6251 -291.30197,343.12765 C -293.85388,344.03042 -300.97603,347.91912 -298.7314,346.40621 C -266.59536,324.7461 -273.00815,329.04737 -279.89855,337.36334 L -308.0831,351.72409 z"
         id="path1311"
         style="fill:#004ccb;fill-opacity:1;fill-rule:nonzero;stroke:none;stroke-width:1px;stroke-linecap:butt;stroke-linejoin:miter;stroke-opacity:1" />
      <path
         inkscape:export-ydpi="90"
         inkscape:export-xdpi="90"
         inkscape:export-filename="/home/clawlinux/path1367.png"
         sodipodi:nodetypes="ccssccccccc"
         d="M 82.069994,349.7964 C 71.445764,374.48302 79.082014,407.36993 85.309794,433.14247 C 91.140684,457.99982 130.23282,460.29279 92.120754,467.30738 C 88.876254,467.90453 96.383814,462.24273 98.131314,459.44458 C 107.03654,445.18519 111.46596,429.21859 116.14596,413.26107 C 127.28922,373.06896 120.44272,401.92835 126.51652,359.91794 L 152.53318,347.09247 C 145.88039,389.29753 149.88671,359.97241 140.51871,401.65075 C 130.71711,440.36046 82.629024,514.39571 58.905044,447.49673 C 52.622804,420.27224 46.751814,389.2199 52.876984,361.88854 L 82.069994,349.7964 z"
         id="path1317"
         style="fill:#004ccb;fill-opacity:1;fill-rule:nonzero;stroke:none;stroke-width:1px;stroke-linecap:butt;stroke-linejoin:miter;stroke-opacity:1" />
      <path
         inkscape:export-ydpi="90"
         inkscape:export-xdpi="90"
         inkscape:export-filename="/home/clawlinux/path1367.png"
         d="M 447.74953,261.52725 C 444.96707,277.18053 445.51906,293.34506 445.70491,309.21248 C 446.12974,319.48766 446.31449,329.70032 445.92098,339.97144 C 445.72672,342.21244 444.92456,344.32283 444.32677,346.47209 L 429.15971,353.67294 C 429.79574,351.60693 430.52564,349.5455 430.8781,347.41165 C 431.46929,337.12733 431.3093,326.80686 431.40827,316.49553 C 431.6148,300.81296 430.66212,284.81596 432.48003,269.30745 L 447.74953,261.52725 z"
         id="path1331"
         style="fill:#004ccb;fill-opacity:1;fill-rule:nonzero;stroke:none;stroke-width:1px;stroke-linecap:butt;stroke-linejoin:miter;stroke-opacity:1" />
      <path
         inkscape:export-ydpi="90"
         inkscape:export-xdpi="90"
         inkscape:export-filename="/home/clawlinux/path1367.png"
         d="M 446.28964,175.45882 C 441.81014,180.15773 441.11889,182.94534 442.47761,187.8493 C 459.60214,185.9135 434.35689,204.90572 441.48453,188.6735 C 442.40878,184.14862 440.42176,183.79318 437.85759,181.39492 L 451.87259,171.92528 C 455.10267,174.89266 457.25859,176.30865 456.61662,181.31682 C 453.101,192.71894 439.75992,202.51569 428.14098,196.85098 C 424.16519,191.04753 426.66772,187.57713 430.47378,182.00996 L 446.28964,175.45882 z"
         id="path1343"
         style="fill:#004ccb;fill-opacity:1;fill-rule:nonzero;stroke:none;stroke-width:1px;stroke-linecap:butt;stroke-linejoin:miter;stroke-opacity:1" />
      <path
         inkscape:export-ydpi="90"
         inkscape:export-xdpi="90"
         sodipodi:nodetypes="csssscccsccc"
         d="M 543.38517,248.6753 C 536.01686,258.40781 522.5993,307.22429 526.47798,323.94865 C 528.74738,333.73404 535.68059,339.21083 545.05582,336.30489 C 551.06128,334.44343 558.07472,328.92894 563.04166,323.82461 C 565.80805,320.98171 570.7956,311.01381 571.57689,308.30138 C 580.32268,277.93837 575.22119,245.6346 546.29196,229.03218 L 559.81591,220.18789 C 590.16077,240.42365 595.1969,277.28139 583.66538,310.61386 C 578.25686,321.87011 568.12931,337.11396 554.71032,345.39461 C 537.87816,355.78147 517.25879,355.9082 510.10261,331.37878 C 507.03704,305.12504 512.65753,277.47827 527.87592,255.69502 L 543.38517,248.6753 z"
         id="path1367"
         style="fill:#004ccb;fill-opacity:1;fill-rule:nonzero;stroke:none;stroke-width:1px;stroke-linecap:butt;stroke-linejoin:miter;stroke-opacity:1" />
      <path
         sodipodi:nodetypes="csssssssssssssssssssssssssccsssssssccssccc"
         id="path2525"
         d="M 227.61901,465.13716 C 223.31923,464.81571 218.39404,463.80741 216.67413,462.89659 C 212.2115,460.53322 200.74334,448.27564 198.92641,443.92712 C 196.42626,437.94341 196.91616,422.3675 199.8675,414.00695 C 207.85542,391.37871 230.48354,374.46447 263.74427,366.25986 C 275.79369,363.28756 277.65276,361.67673 277.65276,354.2085 C 277.65276,347.25176 279.29798,314.85446 272.54059,264.26329 C 263.33773,195.36329 251.67309,146.07457 250.0109,128.65635 C 248.55991,113.4514 248.55363,111.33819 249.95298,109.2025 C 253.06014,104.46038 260.52419,105.11377 265.4523,110.55927 C 266.47893,111.69369 269.45856,117.48777 272.0737,123.43502 C 277.72024,136.27618 285.66138,148.70109 293.40377,156.80856 C 296.49344,160.04392 308.40267,171.35961 319.86873,181.95453 C 331.3348,192.54947 343.9996,205.04836 348.01272,209.72984 C 366.91094,231.77542 374.59315,253.37213 374.59315,284.45441 C 374.59315,314.85302 365.13292,350.53551 354.7594,359.26426 C 350.85261,362.55161 349.20945,362.6815 346.44917,359.92123 C 343.6719,357.14396 343.80527,354.09443 347.41825,337.76322 C 351.63381,318.70824 353.06029,304.71826 352.43047,288.60665 C 351.42242,262.81933 343.49761,244.60353 326.65649,229.36322 C 313.61176,217.55841 289.29679,208.22994 285.01612,213.38783 C 284.19081,214.38226 283.99898,217.044 284.4339,221.4662 C 286.24056,239.83585 289.93442,269.72988 296.51888,319.26881 C 300.51942,349.36724 304.33057,380.19579 304.98814,387.77667 C 307.00452,411.02338 304.28666,423.02593 293.89592,436.76177 C 288.46483,443.94131 275.89739,454.57691 268.42391,458.31829 C 257.05978,464.00734 243.28764,466.30879 227.61901,465.13716 z M 247.55594,446.74452 C 256.90365,443.58731 264.90617,438.23287 274.49813,428.71763 C 286.02119,417.28675 287.03409,415.10258 287.03409,401.6856 C 287.03409,389.5049 285.4658,384.32668 281.47324,383.32462 C 280.05912,382.9697 275.22234,383.23711 270.72482,383.91885 C 254.05512,386.4457 239.88249,393.55403 229.43684,404.62695 C 222.05949,412.44734 216.15294,423.12428 216.15294,428.63954 C 216.15294,435.33233 221.04339,443.099 228.14019,447.67689 C 231.89679,450.10013 238.56959,449.77969 247.55594,446.74452 z M 288.03249,181.29172 C 276.9383,170.49533 273.69328,168.22226 272.32986,170.29237 C 271.33533,171.80239 271.74816,175.92611 273.60751,183.05476 C 274.96111,188.24438 278.75469,189.92955 289.11883,189.94509 L 296.9366,189.95682 L 288.03249,181.29172 z"
         style="fill:#004ccb;fill-opacity:1" />
      <text
         sodipodi:linespacing="100%"
         id="text2553"
         y="442.71161"
         x="336.52008"
         style="font-size:56px;font-style:normal;font-variant:normal;font-weight:bold;font-stretch:normal;text-align:start;line-height:100%;writing-mode:lr-tb;text-anchor:start;fill:#000000;fill-opacity:1;stroke:none;stroke-width:1px;stroke-linecap:butt;stroke-linejoin:miter;stroke-opacity:1;font-family:Bitstream Vera Sans;-inkscape-font-specification:Bitstream Vera Sans Bold"
         xml:space="preserve"><tspan
           y="442.71161"
           x="336.52008"
           id="tspan2555"
           sodipodi:role="line"><tspan
   id="tspan3333"
   style="fill:#004ccb;fill-opacity:1">Conv</tspan>e<tspan
   id="tspan3331"
   style="fill:#004ccb;fill-opacity:1">rsor</tspan></tspan></text>
    </g>
    <text
       xml:space="preserve"
       style="font-size:105.7585907px;font-style:normal;font-weight:normal;line-height:125%;fill:#000000;fill-opacity:1;stroke:none;stroke-width:1px;stroke-linecap:butt;stroke-linejoin:miter;stroke-opacity:1;font-family:Bitstream Vera Sans"
       x="509.17581"
       y="200.86507"
       id="text3392"
       sodipodi:linespacing="125%"><tspan
         sodipodi:role="line"
         id="tspan3394"
         x="509.17581"
         y="200.86507"
         style="font-size:148.06202698px;font-style:italic;font-variant:normal;font-weight:normal;font-stretch:normal;text-align:start;line-height:125%;writing-mode:lr-tb;text-anchor:start;font-family:URW Chancery L;-inkscape-font-specification:URW Chancery L Italic">5</tspan></text>
  </g>
</svg>
